<?xml version="1.0" encoding="utf-8"?>
<!-- Generator: Adobe Illustrator 21.0.0, SVG Export Plug-In . SVG Version: 6.00 Build 0)  -->
<svg version="1.1" id="Layer_1" xmlns="http://www.w3.org/2000/svg" xmlns:xlink="http://www.w3.org/1999/xlink" x="0px" y="0px"
	 viewBox="0 0 3000 2000" style="enable-background:new 0 0 3000 2000;" xml:space="preserve">
<style type="text/css">
	.st0{fill:#B9D232;}
	.st1{fill:#FFFFFF;}
</style>
<g>
	<g>
		<path class="st0" d="M205,1719.6c-9.7-17.5-37.9-33-68.9-33c-40.8,0-60.2,17.5-60.2,39.8c0,26.2,30.1,33,65,37.9
			c61.2,7.8,117.5,24.3,117.5,95.1c0,67-57.3,95.1-122.3,95.1c-59.2,0-104.8-18.4-127.2-73.8l45.6-24.3c12.6,33,46.6,47.6,81.5,47.6
			s67-12.6,67-44.7c0-28.2-29.1-39.8-67-43.7c-59.2-6.8-114.5-23.3-114.5-90.3c0-61.2,59.2-86.4,112.6-87.4
			c45.6,0,92.2,13.6,114.5,59.2L205,1719.6z"/>
		<path class="st0" d="M614.7,1946.7h-46.6l-35.9-94.2l-31.1-94.2l-30.1,95.1l-34.9,93.2h-46.6l-106.8-299h61.2l68.9,215.5
			l70.9-215.5h35.9l72.8,215.5l67-215.5h61.2L614.7,1946.7z"/>
		<path class="st0" d="M753.5,1946.7v-298h209.7v54.4H808.8v81.5h145.6v52.4H808.8v110.7h-55.3V1946.7z"/>
		<path class="st0" d="M1114.6,1699.2h-92.2v-51.4c84.5,0,155.3,0,239.8,0v51.4h-92.2v247.5h-55.3V1699.2z"/>
		<path class="st1" d="M1568.9,1905c-29.1,30.1-68,44.7-105.8,44.7c-98,0-149.5-70.9-149.5-151.4c-1-79.6,49.5-154.3,149.5-154.3
			c37.9,0,76.7,14.6,105.8,44.7l-15.5,13.6c-25.2-25.2-58.2-37.9-90.3-37.9c-84.5,0-128.1,61.2-128.1,133
			c1,69.9,43.7,130.1,128.1,130.1c33,0,66-12.6,91.2-37.9L1568.9,1905z"/>
		<path class="st1" d="M1830.1,1946.7v-135.9h-185.4v135.9h-22.3v-299h22.3v141.7h185.4v-141.7h22.3v299L1830.1,1946.7
			L1830.1,1946.7z"/>
		<path class="st1" d="M2148.5,1946.7l-32-73.8h-173.8l-32,73.8h-24.3l131-299h24.3l131,299H2148.5z M2107.7,1851.6l-78.6-181.5
			l-78.6,181.5H2107.7z"/>
		<path class="st1" d="M2442.6,1946.7h-29.1l-101-112.6h-79.6v112.6h-22.3v-299c42.7,0,85.4,0,128.1,0c63.1,0,95.1,46.6,96.1,93.2
			c0,48.5-31.1,91.2-94.2,91.2L2442.6,1946.7z M2231.9,1811.8h102.9c50.5,0,72.8-29.1,73.8-70.9c0-34.9-23.3-70.9-70.9-70.9h-105.8
			L2231.9,1811.8L2231.9,1811.8z"/>
		<path class="st1" d="M2708.6,1703.1c-25.2-25.2-61.2-38.8-93.2-38.8c-85.4,0-129.1,64.1-128.1,133c0,70.9,43.7,131,128.1,131
			c31.1,0,64.1-10.7,88.3-34.9v-83.5h-101.9v-20.4h122.3v111.6c-30.1,31.1-67,48.5-109.7,48.5c-99,0-150.5-70.9-150.5-152.4
			c0-93.2,61.2-154.3,150.5-154.3c37.9,0,76.7,14.6,106.8,44.7L2708.6,1703.1z"/>
		<path class="st1" d="M2807.6,1785.6h170.8v21.4h-170.8v117.5h183.5v22.3h-205.8v-299h200.9v21.4h-178.6V1785.6z"/>
	</g>
	<g>
		<g id="XMLID_4_">
			<g>
				<path class="st1" d="M2729,531.4v469.8c0,26.2-20.4,47.6-45.6,47.6h-113.6V1175c0,61.2-48.5,110.7-108.7,110.7h-936.8l36.9-48.5
					h887.3c36.9,0,66-30.1,66-68V348.9c0-36.9-30.1-68-66-68h-752.3l13.6-48.5H2461c59.2,0,108.7,50.5,108.7,110.7v140.8h113.6
					C2708.6,483.8,2729,505.2,2729,531.4z"/>
				<path class="st1" d="M2446.5,408.1V1107c0,36.9-30.1,68-66,68h-773.7l373.7-492.2l65-86.4h-437.8l70.9-256.3h700.9
					C2416.4,341.1,2446.5,371.2,2446.5,408.1z"/>
				<path class="st0" d="M1700,47c1.9,1,3.9,1.9,4.9,1.9c-16.5,61.2-34,121.3-50.5,182.5c-4.9,16.5-8.7,32-13.6,48.5
					c-5.8,20.4-11.6,40.8-16.5,61.2c-28.2,102.9-57.3,205.8-85.4,309.7h399.9c-134,175.7-266,350.4-399,525.2
					c-15.5,20.4-31.1,40.8-46.6,61.2c-12.6,16.5-24.3,32-36.9,48.5c-46.6,62.1-93.2,123.3-140.8,185.4c-1.9-1-2.9-1.9-4.9-2.9
					c6.8-25.2,13.6-49.5,20.4-74.7c9.7-35.9,19.4-71.8,30.1-107.8c4.9-16.5,8.7-32,13.6-48.5c0-1,0-1,1-1.9
					c6.8-23.3,29.1-106.8,37.9-135.9c0-1,0-1.9,1-2.9c7.8-26.2,14.6-53.4,22.3-79.6c13.6-50.5,28.2-101,41.7-152.4h-399.9
					c134-176.7,266-350.4,398-523.2c15.5-20.4,31.1-40.8,46.6-61.2c12.6-16.5,24.3-32,36.9-48.5C1606.8,170.3,1653.4,108.2,1700,47z
					"/>
				<path class="st1" d="M1410.7,341.1l-372.8,490.2l-65,86.4h437.8l-36.9,132l-34.9,126.2H634.1c-36.9,0-66-30.1-66-68V409.1
					c0-36.9,30.1-68,66-68H1410.7z"/>
				<path class="st1" d="M575.9,1236.2h747.5l-13.6,48.5H577.8c-59.2,0-108.7-50.5-108.7-110.7v-831c0-61.2,48.5-110.7,108.7-110.7
					h916.4l-36.9,48.5H575.9c-36.9,0-66,31.1-66,68v819.3C508.9,1206.1,539,1236.2,575.9,1236.2z"/>
			</g>
		</g>
	</g>
</g>
</svg>
